<svg width="683" height="122" viewBox="0 0 683 122" fill="none" xmlns="http://www.w3.org/2000/svg">
<path d="M61 122C94.6894 122 122 94.6894 122 61C122 27.3106 94.6894 0 61 0C27.3106 0 0 27.3106 0 61C0 94.6894 27.3106 122 61 122Z" fill="#37013F"/>
<path d="M64.9 102.8H57.2C55.5 102.8 54.1 101.4 54.1 99.7V88.9H64.9C66.6 88.9 68 90.3 68 92V99.7C68 101.4 66.6 102.8 64.9 102.8Z" fill="#557790"/>
<path d="M71.2 75.1H78.9C80.6 75.1 82 73.7 82 72V61.1H71.2C69.5 61.1 68.1 62.5 68.1 64.2V71.9C68 73.7 69.4 75.1 71.2 75.1Z" fill="#557790"/>
<path d="M92.9 47.1H82.1V61.1H92.9C94.6 61.1 96 59.7 96 58V50.3C96 48.5 94.6 47.1 92.9 47.1Z" fill="#557790"/>
<path d="M82 47.1V36.3C82 34.6 80.6 33.2 78.9 33.2H54.1V44C54.1 45.7 55.5 47.1 57.2 47.1H82Z" fill="#557790"/>
<path d="M29.2 47.1H36.9C38.6 47.1 40 48.5 40 50.2V61.1H29.2C27.5 61.1 26.1 59.7 26.1 58V50.3C26.1 48.5 27.5 47.1 29.2 47.1Z" fill="#557790"/>
<path d="M43.2 19.1H50.9C52.6 19.1 54 20.5 54 22.2V33.1H43.2C41.5 33.1 40.1 31.7 40.1 30V22.3C40.1 20.5 41.5 19.1 43.2 19.1Z" fill="#C7E2FD"/>
<path d="M40.1 61.1H50.9C52.6 61.1 54 62.5 54 64.2V88.8H43.2C41.5 88.8 40.1 87.4 40.1 85.7V61.1Z" fill="#C7E2FD"/>
<path d="M153.5 26.2V95.7H136.9V26.2H153.5Z" fill="#F8FAFC"/>
<path d="M244.9 95.7H228.1L184.7 50.4V95.7H168V26.2H184.7L228.1 71.7V26.2H244.9V95.7Z" fill="#F8FAFC"/>
<path d="M336.3 95.7H319.5L276.1 50.4V95.7H259.4V26.2H276.1L319.5 71.7V26.2H336.3V95.7Z" fill="#F8FAFC"/>
<path d="M348.8 49.3C348.8 43 350.8 37.6 354.9 33C359 28.4 364.5 26.1 371.4 26.1H408.5C415.5 26.1 421 28.4 425 33C429.1 37.5 431.1 42.9 431.1 49.1V72.7C431.1 78.7 429.1 84.1 425 88.7C420.9 93.4 415.5 95.7 408.6 95.7H371.5C364.7 95.7 359.3 93.4 355.1 88.7C351 84 349 78.7 349 72.6V49.3H348.8ZM404.2 80C407.3 79.9 409.7 79 411.5 77.1C413.4 75.3 414.3 72.7 414.3 69.6V51.9C414.3 48.6 413.3 46.1 411.5 44.3C409.6 42.4 407.2 41.4 404.2 41.4H375.6C372.6 41.4 370.2 42.3 368.3 44.3C366.5 46.2 365.6 48.7 365.5 51.9V69.8C365.5 72.9 366.5 75.4 368.3 77.2C370.3 79.1 372.7 80.1 375.6 80.1H404.2V80Z" fill="#F8FAFC"/>
<path d="M470.5 95.7V41.3H442.9V26.2H516.1V41.3H487.1V95.7H470.5Z" fill="#F8FAFC"/>
<path d="M546.1 80.3H595.3V95.7H529.5V26.2H595.3V41.7H546.1V80.3Z" fill="#F8FAFC"/>
<path d="M595.3 53.9H555.1V68.1H595.3V53.9Z" fill="#F8FAFC"/>
<path d="M646.1 58.8L682.4 95.7H659.5L626.5 62.2V95.7H609.9V26.2H626.5V56.1L659.5 26.2H682.4L646.1 58.8Z" fill="#F8FAFC"/>
</svg>
