<svg width="684" height="123" viewBox="0 0 684 123" fill="none" xmlns="http://www.w3.org/2000/svg">
<path d="M61.7 122.9C95.3894 122.9 122.7 95.5894 122.7 61.9C122.7 28.2106 95.3894 0.899994 61.7 0.899994C28.0106 0.899994 0.700012 28.2106 0.700012 61.9C0.700012 95.5894 28.0106 122.9 61.7 122.9Z" fill="#37013F"/>
<path d="M65.6 103.7H57.9C56.2 103.7 54.8 102.3 54.8 100.6V89.8H65.6C67.3 89.8 68.7 91.2 68.7 92.9V100.6C68.7 102.3 67.3 103.7 65.6 103.7Z" fill="#557790"/>
<path d="M71.9 76H79.6C81.3 76 82.7 74.6 82.7 72.9V62H71.9C70.2 62 68.8 63.4 68.8 65.1V72.8C68.7 74.6 70.1 76 71.9 76Z" fill="#557790"/>
<path d="M93.6 48H82.8V62H93.6C95.3 62 96.7 60.6 96.7 58.9V51.2C96.7 49.4 95.3 48 93.6 48Z" fill="#557790"/>
<path d="M82.7 48V37.2C82.7 35.5 81.3 34.1 79.6 34.1H54.8V44.9C54.8 46.6 56.2 48 57.9 48H82.7Z" fill="#557790"/>
<path d="M29.9 48H37.6C39.3 48 40.7 49.4 40.7 51.1V62H29.9C28.2 62 26.8 60.6 26.8 58.9V51.2C26.8 49.4 28.2 48 29.9 48Z" fill="#557790"/>
<path d="M43.9 20H51.6C53.3 20 54.7 21.4 54.7 23.1V34H43.9C42.2 34 40.8 32.6 40.8 30.9V23.2C40.8 21.4 42.2 20 43.9 20Z" fill="#C7E2FD"/>
<path d="M40.8 62H51.6C53.3 62 54.7 63.4 54.7 65.1V89.7H43.9C42.2 89.7 40.8 88.3 40.8 86.6V62Z" fill="#C7E2FD"/>
<path d="M154.2 27.1V96.6H137.6V27.1H154.2Z" fill="black"/>
<path d="M245.6 96.6H228.8L185.4 51.3V96.6H168.7V27.1H185.4L228.8 72.6V27.1H245.6V96.6Z" fill="black"/>
<path d="M337 96.6H320.2L276.8 51.3V96.6H260.1V27.1H276.8L320.2 72.6V27.1H337V96.6Z" fill="black"/>
<path d="M349.5 50.2C349.5 43.9 351.5 38.5 355.6 33.9C359.7 29.3 365.2 27 372.1 27H409.2C416.2 27 421.7 29.3 425.7 33.9C429.8 38.4 431.8 43.8 431.8 50V73.6C431.8 79.6 429.8 85 425.7 89.6C421.6 94.3 416.2 96.6 409.3 96.6H372.2C365.4 96.6 360 94.3 355.8 89.6C351.7 84.9 349.7 79.6 349.7 73.5V50.2H349.5ZM404.9 80.9C408 80.8 410.4 79.9 412.2 78C414.1 76.2 415 73.6 415 70.5V52.8C415 49.5 414 47 412.2 45.2C410.3 43.3 407.9 42.3 404.9 42.3H376.3C373.3 42.3 370.9 43.2 369 45.2C367.2 47.1 366.3 49.6 366.2 52.8V70.7C366.2 73.8 367.2 76.3 369 78.1C371 80 373.4 81 376.3 81H404.9V80.9Z" fill="black"/>
<path d="M471.2 96.6V42.2H443.6V27.1H516.8V42.2H487.8V96.6H471.2Z" fill="black"/>
<path d="M546.8 81.2H596V96.6H530.2V27.1H596V42.6H546.8V81.2Z" fill="black"/>
<path d="M596 54.8H555.8V69H596V54.8Z" fill="black"/>
<path d="M646.8 59.7L683.1 96.6H660.2L627.2 63.1V96.6H610.6V27.1H627.2V57L660.2 27.1H683.1L646.8 59.7Z" fill="black"/>
</svg>
