<svg width="177" height="177" viewBox="0 0 177 177" fill="none" xmlns="http://www.w3.org/2000/svg">
<rect width="177" height="177" rx="30" fill="#152342"/>
<path d="M59.3736 141.492C54.5276 138.709 50.1056 135.246 46.2424 131.21C45.1219 132.614 43.7523 133.8 42.202 134.709C41.3457 135.192 40.4433 135.589 39.5084 135.893C49.6597 146.971 63.2624 154.292 78.1047 156.664C92.9471 159.037 108.156 156.322 121.259 148.962C121.886 148.602 122.406 148.084 122.769 147.459C123.131 146.834 123.321 146.124 123.321 145.402C123.321 144.68 123.131 143.97 122.769 143.345C122.406 142.72 121.886 142.202 121.259 141.842C120.651 141.478 119.957 141.279 119.248 141.268C118.539 141.256 117.839 141.431 117.219 141.775C108.385 146.76 98.4031 149.356 88.2586 149.306C78.114 149.257 68.1579 146.563 59.3736 141.492Z" fill="#FFFFFD"/>
<path d="M59.3602 40.6037C64.2077 37.8097 69.4332 35.7291 74.8753 34.426C74.199 32.7116 73.8518 30.8852 73.8517 29.0424C73.8542 28.0482 73.9535 27.0565 74.148 26.0814C59.477 29.337 46.3394 37.4564 36.8716 49.1196C27.4037 60.7828 22.1625 75.3037 22 90.3212C22.0024 91.043 22.1945 91.7515 22.5572 92.3757C22.9199 92.9999 23.4403 93.5179 24.0664 93.8778C24.6925 94.2376 25.4023 94.4267 26.1246 94.4261C26.8469 94.4255 27.5563 94.2353 28.1818 93.8744C28.7961 93.5295 29.3094 93.03 29.6709 92.4256C30.0323 91.8212 30.2294 91.1329 30.2424 90.4289C30.3507 80.3125 33.0924 70.3986 38.1978 61.6624C43.3032 52.9261 50.5965 45.6686 59.3602 40.6037Z" fill="#FFFFFD"/>
<path d="M146.781 91.048C146.779 96.6392 145.972 102.201 144.383 107.562C146.195 107.827 147.94 108.43 149.528 109.339C150.381 109.826 151.188 110.389 151.939 111.021C156.442 96.6958 155.965 81.2697 150.586 67.2494C145.207 53.2291 135.242 41.4385 122.309 33.7934C121.682 33.4652 120.981 33.3038 120.274 33.325C119.566 33.3461 118.876 33.5491 118.27 33.9142C117.663 34.2794 117.161 34.7944 116.812 35.4098C116.463 36.0251 116.278 36.72 116.276 37.4274C116.268 38.13 116.445 38.8224 116.787 39.4362C117.13 40.0499 117.627 40.5637 118.229 40.9267C126.931 46.0867 134.14 53.4213 139.146 62.2092C144.152 70.9972 146.783 80.9358 146.781 91.048Z" fill="#FFFFFD"/>
<path d="M88.5183 63.3494C94.0008 63.3467 99.3609 64.969 103.921 68.0109C108.481 71.0528 112.035 75.3778 114.135 80.4389C116.235 85.4999 116.786 91.0696 115.718 96.4435C114.65 101.817 112.011 106.754 108.135 110.629C104.26 114.504 99.321 117.144 93.9441 118.213C88.5671 119.283 82.9934 118.735 77.928 116.639C72.8626 114.543 68.533 110.993 65.4868 106.438C62.4406 101.883 60.8147 96.5268 60.8147 91.048C60.8218 83.7064 63.7424 76.6673 68.936 71.4747C74.1295 66.2822 81.1718 63.3601 88.5183 63.3494ZM88.5183 55.1259C81.4089 55.1259 74.4591 57.2327 68.5478 61.1799C62.6365 65.1271 58.0292 70.7373 55.3085 77.3012C52.5879 83.8651 51.876 91.0878 53.263 98.056C54.65 105.024 58.0735 111.425 63.1006 116.449C68.1278 121.473 74.5328 124.894 81.5056 126.28C88.4784 127.666 95.706 126.954 102.274 124.236C108.843 121.517 114.457 116.913 118.406 111.005C122.356 105.098 124.464 98.1527 124.464 91.048C124.466 86.3301 123.538 81.6582 121.732 77.2991C119.926 72.94 117.278 68.9793 113.94 65.6433C110.602 62.3073 106.638 59.6614 102.276 57.8567C97.9144 56.0521 93.2393 55.1242 88.5183 55.1259Z" fill="#FFFFFD"/>
<path d="M88.5049 38.6656C93.8008 38.6656 98.094 34.3752 98.094 29.0828C98.094 23.7904 93.8008 19.5 88.5049 19.5C83.2089 19.5 78.9156 23.7904 78.9156 29.0828C78.9156 34.3752 83.2089 38.6656 88.5049 38.6656Z" fill="#F58320"/>
<path d="M34.808 131.6C40.104 131.6 44.3972 127.31 44.3972 122.017C44.3972 116.725 40.104 112.434 34.808 112.434C29.5121 112.434 25.2188 116.725 25.2188 122.017C25.2188 127.31 29.5121 131.6 34.808 131.6Z" fill="#F58320"/>
<path d="M142.202 131.6C147.498 131.6 151.791 127.31 151.791 122.017C151.791 116.725 147.498 112.434 142.202 112.434C136.906 112.434 132.612 116.725 132.612 122.017C132.612 127.31 136.906 131.6 142.202 131.6Z" fill="#F58320"/>
<path d="M96.4644 84.4935C96.4663 83.0958 96.0991 81.7224 95.3998 80.512C94.7005 79.3017 93.6939 78.2971 92.4817 77.6C91.2695 76.9029 89.8946 76.5379 88.4961 76.5418C87.0975 76.5457 85.7247 76.9185 84.5165 77.6224C83.3082 78.3263 82.3072 79.3363 81.6147 80.5506C80.9222 81.7649 80.5627 83.1403 80.5724 84.538C80.5822 85.9356 80.9609 87.3058 81.6703 88.5103C82.3797 89.7149 83.3946 90.7109 84.6126 91.3979L82.1076 104.09C82.0671 104.288 82.0717 104.492 82.121 104.688C82.1703 104.884 82.2631 105.066 82.3925 105.221C82.5218 105.376 82.6844 105.5 82.8682 105.584C83.052 105.668 83.2524 105.709 83.4544 105.705H93.6496C93.8516 105.709 94.0519 105.668 94.2357 105.584C94.4196 105.5 94.5822 105.376 94.7115 105.221C94.8409 105.066 94.9336 104.884 94.9829 104.688C95.0323 104.492 95.0369 104.288 94.9964 104.09L92.4779 91.3979C93.6933 90.7014 94.7025 89.6956 95.4027 88.4829C96.103 87.2701 96.4693 85.8936 96.4644 84.4935Z" fill="#F58320"/>
</svg>
