<svg width="300" height="300" viewBox="0 0 300 300" fill="none" xmlns="http://www.w3.org/2000/svg">
<path d="M150 300C232.843 300 300 232.843 300 150C300 67.1573 232.843 0 150 0C67.1573 0 0 67.1573 0 150C0 232.843 67.1573 300 150 300Z" fill="#37013F"/>
<path d="M159.59 252.787H140.656C136.475 252.787 133.033 249.344 133.033 245.164V218.607H159.59C163.771 218.607 167.213 222.049 167.213 226.229V245.164C167.213 249.344 163.771 252.787 159.59 252.787Z" fill="#557790"/>
<path d="M175.082 184.672H194.016C198.197 184.672 201.639 181.23 201.639 177.049V150.246H175.082C170.902 150.246 167.459 153.689 167.459 157.869V176.803C167.213 181.23 170.656 184.672 175.082 184.672Z" fill="#557790"/>
<path d="M228.443 115.82H201.885V150.246H228.443C232.623 150.246 236.066 146.803 236.066 142.623V123.689C236.066 119.262 232.623 115.82 228.443 115.82Z" fill="#557790"/>
<path d="M201.639 115.82V89.2622C201.639 85.0819 198.197 81.6393 194.016 81.6393H133.033V108.197C133.033 112.377 136.475 115.82 140.656 115.82H201.639Z" fill="#557790"/>
<path d="M71.8033 115.82H90.7377C94.918 115.82 98.3607 119.262 98.3607 123.443V150.246H71.8033C67.623 150.246 64.1803 146.803 64.1803 142.623V123.689C64.1803 119.262 67.623 115.82 71.8033 115.82Z" fill="#557790"/>
<path d="M106.23 46.9672H125.164C129.344 46.9672 132.787 50.4098 132.787 54.5902V81.3935H106.23C102.049 81.3935 98.6066 77.9508 98.6066 73.7705V54.8361C98.6066 50.4098 102.049 46.9672 106.23 46.9672Z" fill="#C7E2FD"/>
<path d="M98.6066 150.246H125.164C129.344 150.246 132.787 153.689 132.787 157.869V218.361H106.23C102.049 218.361 98.6066 214.918 98.6066 210.738V150.246Z" fill="#C7E2FD"/>
</svg>
